# AST/ASF file generated using VICON BodyLanguage
# -----------------------------------------------
:version 1.10
:name VICON
:units
  mass 1.0
  length 0.45
  angle deg
:documentation
   .ast/.asf automatically generated from VICON data using
   VICON BodyBuilder and BodyLanguage model FoxedUp or BRILLIANT.MOD
:root
   order TX TY TZ RX RY RZ
   axis XYZ
   position 0 0 0  
   orientation 0 0 0 
:bonedata
  begin
     id 1 
     name lhipjoint
     direction 0.671379 -0.66392 0.329334 
     length 2.38647 
     axis 0 0 0  XYZ
  end
  begin
     id 2 
     name lfemur
     direction 0.34202 -0.939693 0  
     length 6.48179  
     axis 0 0 20  XYZ
    dof rx ry rz
    limits (-160.0 20.0)
           (-70.0 70.0)
           (-60.0 70.0)
  end
  begin
     id 3 
     name ltibia
     direction 0.34202 -0.939693 0   
     length 6.86524   
     axis 0 0 20   XYZ
    dof rx
    limits (-10.0 170.0)
  end
  begin
     id 4 
     name lfoot
     direction 0.204886 -0.562919 0.800715   
     length 1.73031   
     axis -90 7.62852e-016 20   XYZ
    dof rx rz
    limits (-45.0 90.0)
           (-70.0 20.0)
  end
  begin
     id 5 
     name ltoes
     direction 1.53548e-011 -4.21841e-011 1   
     length 0.828161   
     axis -90 7.62852e-016 20   XYZ
    dof rx
    limits (-90.0 20.0)
  end
  begin
     id 6 
     name rhipjoint
     direction -0.662732 -0.670855 0.332775   
     length 2.3618  
     axis 0 0 0  XYZ 
  end
  begin
     id 7 
     name rfemur
     direction -0.34202 -0.939693 0   
     length 6.3025   
     axis 0 0 -20   XYZ
    dof rx ry rz
    limits (-160.0 20.0)
           (-70.0 70.0)
           (-70.0 60.0)
  end
  begin
     id 8 
     name rtibia
     direction -0.34202 -0.939693 0   
     length 6.8732   
     axis 0 0 -20   XYZ
    dof rx
    limits (-10.0 170.0)
 end
 begin
     id 9 
     name rfoot
     direction -0.173856 -0.477665 0.861168   
     length 1.54784  
     axis -90 -7.62852e-016 -20   XYZ
    dof rx rz
    limits (-45.0 90.0)
           (-20.0 70.0)
  end
  begin
     id 10 
     name rtoes
     direction -1.53562e-011 -4.21802e-011 1   
     length 0.759618   
     axis -90 -7.62852e-016 -20   XYZ
    dof rx
    limits (-90.0 20.0)
  end
  begin
     id 11 
     name lowerback
     direction -0.0278357 0.999497 -0.0151789   
     length 1.97203   
     axis 0 0 0   XYZ
    dof rx ry rz
    limits (-20.0 45.0)
           (-30.0 30.0)
           (-30.0 30.0)
  end
  begin
     id 12 
     name upperback
     direction -0.00360622 0.997542 0.0699804   
     length 1.94709   
     axis 0 0 0   XYZ
    dof rx ry rz
    limits (-20.0 45.0)
           (-30.0 30.0)
           (-30.0 30.0)
  end
  begin
     id 13 
     name thorax
     direction 0.00907706 0.997048 0.0762461   
     length 1.95722   
     axis 0 0 0   XYZ
    dof rx ry rz
    limits (-20.0 45.0)
           (-30.0 30.0)
           (-30.0 30.0)
  end
  begin
     id 14 
     name lowerneck
     direction -0.0481835 0.99872 -0.0153927   
     length 1.63078   
     axis 0 0 0   XYZ
    dof rx ry rz
    limits (-20.0 45.0)
           (-30.0 30.0)
           (-30.0 30.0)
  end
  begin
     id 15 
     name upperneck
     direction 0.0859716 0.979226 -0.183644   
     length 1.62591   
     axis 0 0 0   XYZ
    dof rx ry rz
    limits (-20.0 45.0)
           (-30.0 30.0)
           (-30.0 30.0)
  end
  begin
     id 16
     name head
     direction 0.0324821 0.997629 -0.0606773  
     length 1.64811  
     axis 0 0 0   XYZ
    dof rx ry rz
    limits (-20.0 45.0)
           (-30.0 30.0)
           (-30.0 30.0)
  end
  begin
     id 17 
     name lclavicle
     direction 0.939609 0.311019 0.142835  
     length 3.70647  
     axis 0 0 0   XYZ
    dof ry rz
    limits (-20.0 10.0)
           (0.0 20.0)
  end
  begin
     id 18 
     name lhumerus
     direction 1 -4.48963e-011 -1.59838e-027   
     length 4.59207   
     axis 180 -30 -90   XYZ
    dof rx ry rz
    limits (-60.0 90.0)
           (-90.0 90.0)
           (-90.0 90.0)
  end
  begin
     id 19
     name lradius
     direction 1 -4.48957e-011 -1.3483e-026   
     length 2.98109   
     axis 180 -30 -90   XYZ
    dof rx
    limits (-10.0 170.0)
  end
  begin
     id 20
     name lwrist
     direction 1 -4.48954e-011 -3.11579e-026   
     length 1.49055   
     axis 2.00652e-014 90 90   XYZ
    dof ry
    limits (-180.0 0.0)
 end
  begin
     id 21 
     name lhand
     direction 1 -4.4911e-011 -6.23158e-026   
     length 0.480203   
     axis 3.97628e-014 90 90   XYZ
    dof rx rz
    limits (-90.0 90.0)
           (-45.0 45.0)
  end
  begin
     id 22 
     name lfingers
     direction 1 -4.48893e-011 -1.24632e-025   
     length 0.387152   
     axis 7.95256e-014 90 90   XYZ
    dof rx
    limits (0.0 90.0)
  end
  begin
     id 23
     name lthumb
     direction 0.707107 -6.35013e-011 0.707107   
     length 0.555875   
     axis -90 45 2.85299e-015   XYZ
    dof rx rz
    limits (-45.0 45.0)
           (-45.0 45.0)
  end
  begin
     id 24 
     name rclavicle
     direction -0.950396 0.30392 0.0661859   
     length 3.70894  
     axis 0 0 0   XYZ 
    dof ry rz
    limits (-10.0 20.0)
           (-20.0 0.0)
  end
  begin
     id 25 
     name rhumerus
     direction -1 -4.48957e-011 -2.96677e-027  
     length 4.76508   
     axis 180 30 90   XYZ
    dof rx ry rz
    limits (-90.0 60.0)
           (-90.0 90.0)
           (-90.0 90.0)
  end
  begin
     id 26 
     name rradius
     direction -1 -4.48974e-011 -1.44501e-026   
     length 2.78902   
     axis 180 30 90   XYZ
    dof rx
    limits (-10.0 170.0)
  end
  begin
     id 27 
     name rwrist
     direction -1 -4.48978e-011 -3.11579e-026   
     length 1.39451   
     axis 2.00652e-014 -90 -90   XYZ
    dof ry
    limits (-180.0 0.0)
  end
  begin
     id 28
     name rhand
     direction -1 -4.48956e-011 -6.23158e-026   
     length 0.721303   
     axis 3.97628e-014 -90 -90   XYZ
    dof rx rz
    limits (-90.0 90.0)
           (-45.0 45.0)
  end
  begin
     id 29
     name rfingers
     direction -1 -4.4899e-011 -1.24632e-025   
     length 0.581533   
     axis 7.95256e-014 -90 -90   XYZ
    dof rx
    limits (0.0 90.0)
  end
  begin
     id 30
     name rthumb
     direction -0.707107 -6.34911e-011 0.707107   
     length 0.834968   
     axis -90 -45 -2.85299e-015   XYZ
    dof rx rz
    limits (-45.0 45.0)
           (-45.0 45.0)
  end
:hierarchy
  begin
    root lhipjoint rhipjoint lowerback
    lhipjoint lfemur
    lfemur ltibia
    ltibia lfoot
    lfoot ltoes
    rhipjoint rfemur
    rfemur rtibia
    rtibia rfoot
    rfoot rtoes
    lowerback upperback
    upperback thorax
    thorax lowerneck lclavicle rclavicle
    lowerneck upperneck
    upperneck head
    lclavicle lhumerus
    lhumerus lradius
    lradius lwrist
    lwrist lhand lthumb
    lhand lfingers
    rclavicle rhumerus
    rhumerus rradius
    rradius rwrist
    rwrist rhand rthumb
    rhand rfingers
  end

#!OML:ASF I:\salsa\salsa 7_09\Patient 1\Session 1\dancerfemale.ASF
:FULLY-SPECIFIED
:DEGREES
281
root 20.0633 15.973 0.746296 -525.942 -76.1669 530.662
lowerback -0.795928 1.37035 -0.523508
upperback -7.79629 1.43384 -1.74038
thorax -7.66153 0.55789 -1.59979
lowerneck -3.83832 0.864653 -4.69517
upperneck 16.4805 -0.266763 9.63481
head 5.56862 0.0705225 3.79569
rclavicle -3.52843e-015 1.51076e-014
rhumerus -36.1001 4.63335 -102.862
rradius 90.7868
rwrist 0.98386
rhand -3.37001 57.5
rfingers 7.12502
rthumb 22.3588 28.7739
lclavicle -3.52843e-015 1.51076e-014
lhumerus -45.6946 -11.6488 87.5628
lradius 88.3906
lwrist -25.0196
lhand -30.0037 16.5444
lfingers 7.12502
lthumb -3.32099 46.4983
rfemur -8.5664 1.78889 15.3416
rtibia 32.3278
rfoot -20.4573 -9.13199
rtoes -13.2137
lfemur -19.3098 -1.40535 -26.3834
ltibia 35.4935
lfoot -25.8509 5.66432
ltoes -12.8929
282
root 20.0515 15.9681 0.761139 -526.202 -76.045 530.865
lowerback -0.748073 1.35158 -0.720494
upperback -7.80031 1.40937 -1.61627
thorax -7.70254 0.563918 -1.35952
lowerneck -3.76581 0.814788 -4.42997
upperneck 16.3471 -0.323553 9.45648
head 5.52093 0.0445644 3.68724
rclavicle -1.27719e-014 -9.93923e-016
rhumerus -35.9022 4.55091 -102.214
rradius 90.7463
rwrist 1.46449
rhand -3.34149 57.2398
rfingers 7.12502
rthumb 22.3862 28.5169
lclavicle -1.27719e-014 -9.93923e-016
lhumerus -46.3251 -11.6852 87.7478
lradius 88.3571
lwrist -25.2391
lhand -30.0328 16.222
lfingers 7.12502
lthumb -3.34915 46.1754
rfemur -8.79103 1.48793 15.1833
rtibia 32.7845
rfoot -19.9261 -8.57006
rtoes -13.9103
lfemur -19.256 -1.41504 -26.4353
ltibia 35.6063
lfoot -26.0141 5.80798
ltoes -13.3166
283
root 20.0353 15.9631 0.777781 -526.541 -75.9758 531.1
lowerback -0.726821 1.32724 -0.879932
upperback -7.75701 1.38435 -1.47244
thorax -7.67584 0.569666 -1.11805
lowerneck -3.79872 0.719223 -4.48315
upperneck 16.3527 -0.462049 9.52188
head 5.5384 -0.0217579 3.70979
rclavicle -1.43622e-014 1.19271e-015
rhumerus -35.7213 4.53066 -101.56
rradius 90.6003
rwrist 1.84253
rhand -3.53112 57.1818
rfingers 7.12502
rthumb 22.2042 28.4371
lclavicle -1.43622e-014 1.19271e-015
lhumerus -46.8959 -11.7467 87.9362
lradius 88.4053
lwrist -25.4479
lhand -29.8308 16.5895
lfingers 7.12502
lthumb -3.15407 46.5459
rfemur -8.9332 1.24266 15.065
rtibia 33.2533
rfoot -19.6057 -8.18056
rtoes -14.4847
lfemur -19.1386 -1.32563 -26.4886
ltibia 35.7028
lfoot -26.1438 5.84689
ltoes -13.5054
284
root 20.0161 15.9575 0.795782 -526.846 -75.98 531.23
lowerback -0.702992 1.28693 -1.05356
upperback -7.63627 1.34657 -1.28913
thorax -7.56773 0.573838 -0.825548
lowerneck -4.03525 0.625783 -4.8103
upperneck 16.4369 -0.600129 9.78841
head 5.61471 -0.0839279 3.84641
rclavicle -4.95471e-014 -1.19271e-014
rhumerus -35.5234 4.58503 -100.822
rradius 90.3609
rwrist 2.12385
rhand -3.78984 57.2009
rfingers 7.12502
rthumb 21.9558 28.4269
lclavicle -4.95471e-014 -1.19271e-014
lhumerus -47.2913 -11.7711 88.1785
lradius 88.4478
lwrist -25.5176
lhand -29.6014 17.2605
lfingers 7.12502
lthumb -2.93255 47.2201
rfemur -8.9378 1.11914 14.9587
rtibia 33.6981
rfoot -19.4607 -7.95913
rtoes -15.05
lfemur -18.953 -1.35248 -26.5674
ltibia 35.8353
lfoot -26.25 5.93932
ltoes -13.3887
285
root 20.002 15.9538 0.812382 -527.605 -76.1278 531.791
lowerback -0.563295 1.22294 -1.1538
upperback -7.54761 1.2803 -1.05276
thorax -7.56091 0.560687 -0.520231
lowerneck -3.56964 0.417903 -4.4855
upperneck 15.898 -0.783931 9.18965
head 5.38327 -0.205653 3.57753
rclavicle -2.00276e-014 -5.36719e-015
rhumerus -35.4298 4.55184 -100.043
rradius 90.0327
rwrist 2.5313
rhand -4.04502 57.1113
rfingers 7.12502
rthumb 21.7107 28.3087
lclavicle -2.00276e-014 -5.36719e-015
lhumerus -47.6011 -11.6946 88.3983
lradius 88.374
lwrist -25.5285
lhand -29.2841 17.7467
lfingers 7.12502
lthumb -2.62607 47.7103
rfemur -8.88577 1.22345 15.0718
rtibia 34.1278
rfoot -19.3525 -8.06238
rtoes -15.0151
lfemur -18.7998 -1.51339 -26.4639
ltibia 36.022
lfoot -26.2278 5.96923
ltoes -13.1169
286
root 19.9913 15.9499 0.827916 -528.889 -76.3843 532.95
lowerback -0.428272 1.21686 -1.11186
upperback -7.52639 1.29065 -0.841252
thorax -7.6201 0.573541 -0.325667
lowerneck -3.52566 0.255933 -4.55333
upperneck 15.9435 -1.02208 9.26542
head 5.40716 -0.323654 3.6005
rclavicle 5.75233e-015 4.17448e-015
rhumerus -35.4009 4.21144 -99.2403
rradius 89.6533
rwrist 2.9343
rhand -4.23588 57.0564
rfingers 7.12502
rthumb 21.5274 28.2327
lclavicle 5.75233e-015 4.17448e-015
lhumerus -47.8086 -11.7486 88.5618
lradius 88.146
lwrist -25.6238
lhand -28.8512 18.1974
lfingers 7.12502
lthumb -2.20797 48.1657
rfemur -8.92324 1.51573 15.4338
rtibia 34.5906
rfoot -19.2168 -8.50852
rtoes -14.943
lfemur -18.7696 -1.67607 -26.181
ltibia 36.2515
lfoot -26.0877 5.90762
ltoes -12.9684
287
root 19.9759 15.9423 0.84513 -529.817 -76.6327 533.78
lowerback -0.373852 1.19303 -1.13874
upperback -7.49394 1.27717 -0.600644
thorax -7.62277 0.579862 -0.0588401
lowerneck -3.46834 0.0734706 -4.65408
upperneck 15.9216 -1.24252 9.13427
head 5.4071 -0.446482 3.56309
rclavicle -1.32627e-014 -6.48535e-015
rhumerus -35.3363 4.02666 -98.3744
rradius 89.2334
rwrist 3.11395
rhand -4.32957 56.8559
rfingers 7.12502
rthumb 21.4375 28.022
lclavicle -1.32627e-014 -6.48535e-015
lhumerus -47.9582 -11.6226 88.7532
lradius 87.9174
lwrist -25.8544
lhand -28.2456 18.7328
lfingers 7.12502
lthumb -1.62307 48.7064
rfemur -9.01887 1.82586 15.7051
rtibia 35.1281
rfoot -19.0793 -9.0232
rtoes -15.4499
lfemur -18.7725 -1.87113 -26.0428
ltibia 36.5214
lfoot -26.0192 5.93903
ltoes -13.0623
288
root 19.9539 15.9302 0.865596 -529.737 -76.9287 533.554
lowerback -0.353766 1.18019 -1.39576
upperback -7.45812 1.26637 -0.402217
thorax -7.60741 0.600363 0.292851
lowerneck -3.32865 -0.139006 -4.837
upperneck 15.8941 -1.49134 8.95263
head 5.39326 -0.593104 3.52179
rclavicle -1.81174e-014 1.77664e-015
rhumerus -35.486 3.717 -97.4631
rradius 88.9846
rwrist 3.34137
rhand -4.32134 56.4372
rfingers 7.12502
rthumb 21.4454 27.6042
lclavicle -1.81174e-014 1.77664e-015
lhumerus -48.0616 -11.4356 88.999
lradius 87.5331
lwrist -26.0249
lhand -27.211 18.3572
lfingers 7.12502
lthumb -0.623841 48.336
rfemur -9.07755 1.91605 15.6554
rtibia 35.7562
rfoot -19.0724 -9.37705
rtoes -15.5199
lfemur -18.7355 -2.28349 -26.2049
ltibia 36.8381
lfoot -26.0169 6.05548
ltoes -13.5794
289
root 19.9336 15.9142 0.88838 -529.643 -77.4103 533.27
lowerback -0.271606 1.15437 -1.60927
upperback -7.41715 1.23916 -0.217606
thorax -7.62085 0.609933 0.60573
lowerneck -3.08872 -0.384874 -5.04137
upperneck 15.7945 -1.7849 8.78231
head 5.34342 -0.764967 3.48452
rclavicle 1.75055e-014 9.74045e-015
rhumerus -35.8344 3.2189 -96.5547
rradius 88.9507
rwrist 3.69493
rhand -4.24427 56.0352
rfingers 7.12502
rthumb 21.5194 27.2106
lclavicle 1.75055e-014 9.74045e-015
lhumerus -48.0423 -11.2934 89.1799
lradius 86.8785
lwrist -26.0896
lhand -26.2611 17.3085
lfingers 7.12502
lthumb 0.293572 47.2881
rfemur -9.12362 1.56633 15.5632
rtibia 36.4908
rfoot -19.1603 -9.49979
rtoes -14.9042
lfemur -18.6905 -3.04916 -26.349
ltibia 37.2059
lfoot -26.0101 6.23585
ltoes -13.4984
290
root 19.9196 15.8956 0.910222 -530.529 -78.0734 533.921
lowerback -0.0814818 1.11494 -1.62685
upperback -7.35259 1.20711 0.033495
thorax -7.6673 0.6083 0.877575
lowerneck -3.06582 -0.608792 -5.61693
upperneck 15.817 -2.07732 8.99556
head 5.37326 -0.927556 3.63436
rclavicle -8.05078e-015 4.17448e-015
rhumerus -36.0532 2.74473 -95.567
rradius 88.8944
rwrist 3.94713
rhand -4.10505 55.8808
rfingers 7.12502
rthumb 21.6531 27.0716
lclavicle -8.05078e-015 4.17448e-015
lhumerus -47.9298 -11.244 89.3854
lradius 86.121
lwrist -26.2463
lhand -26.2655 17.124
lfingers 7.12502
lthumb 0.289344 47.1036
rfemur -9.16083 0.920059 15.6998
rtibia 37.3315
rfoot -19.0225 -9.48291
rtoes -15.1627
lfemur -18.6409 -3.81106 -26.2407
ltibia 37.6298
lfoot -25.9924 6.32025
ltoes -11.5002
291
root 19.9041 15.8757 0.930622 -531.567 -78.77 534.743
lowerback 0.0775689 1.12284 -1.64147
upperback -7.2847 1.23851 0.278096
thorax -7.69395 0.637192 1.1375
lowerneck -2.54376 -0.96462 -5.52244
upperneck 15.3497 -2.47403 8.47525
head 5.16655 -1.15944 3.42717
rclavicle 1.38155e-014 2.78299e-015
rhumerus -36.2345 2.16742 -94.5404
rradius 88.9266
rwrist 4.39189
rhand -4.30413 56.3589
rfingers 7.12502
rthumb 21.4619 27.5278
lclavicle 1.38155e-014 2.78299e-015
lhumerus -47.7166 -11.2687 89.6339
lradius 85.3095
lwrist -26.6161
lhand -27.3286 17.7862
lfingers 7.12502
lthumb -0.737428 47.7647
rfemur -9.27853 0.301589 15.8585
rtibia 38.2945
rfoot -18.7281 -9.45436
rtoes -15.8677
lfemur -18.6356 -4.25499 -26.1063
ltibia 38.1102
lfoot -25.9949 6.16225
ltoes -13.0288
292
root 19.889 15.8579 0.951406 -532.304 -79.4671 535.332
lowerback 0.172069 1.14873 -1.71197
upperback -7.20935 1.29101 0.508856
thorax -7.67755 0.678828 1.41388
lowerneck -2.33783 -1.36668 -5.69288
upperneck 15.1459 -2.94998 8.13557
head 5.10373 -1.4244 3.32198
rclavicle -1.86361e-014 -1.07344e-014
rhumerus -36.52 1.49617 -93.5279
rradius 89.2797
rwrist 5.29903
rhand -5.4572 57.5552
rfingers 7.12502
rthumb 20.3541 28.6018
lclavicle -1.86361e-014 -1.07344e-014
lhumerus -47.3328 -11.2169 89.7831
lradius 84.4397
lwrist -27.0825
lhand -28.9856 18.5737
lfingers 7.12502
lthumb -2.3378 48.5407
rfemur -9.5742 -0.139389 15.9595
rtibia 39.3742
rfoot -18.3832 -9.5616
rtoes -15.9071
lfemur -18.7122 -4.6024 -26.031
ltibia 38.5753
lfoot -26.041 5.91883
ltoes -13.3985
293
root 19.8775 15.8399 0.972253 -532.913 -80.2084 535.806
lowerback 0.292468 1.12709 -1.81502
upperback -7.1221 1.28005 0.771438
thorax -7.66313 0.692317 1.74608
lowerneck -2.34662 -1.7454 -6.1179
upperneck 15.0502 -3.3881 7.91041
head 5.11276 -1.67106 3.29774
rclavicle 2.72832e-014 5.1684e-015
rhumerus -36.8618 0.880416 -92.5411
rradius 89.9627
rwrist 6.2732
rhand -6.68205 59.138
rfingers 7.12502
rthumb 19.1766 30.0634
lclavicle 2.72832e-014 5.1684e-015
lhumerus -46.8335 -10.839 89.7476
lradius 83.5802
lwrist -27.6197
lhand -30.3778 18.9211
lfingers 7.12502
lthumb -3.68232 48.869
rfemur -10.0043 -0.527005 16.0294
rtibia 40.6084
rfoot -17.9308 -9.71307
rtoes -16.1549
lfemur -18.8157 -4.90323 -25.9851
ltibia 38.9834
lfoot -26.07 5.59581
ltoes -13.0901
294
root 19.8623 15.8266 0.991174 -533.062 -80.9458 535.817
lowerback 0.367723 1.11451 -2.02404
upperback -7.03242 1.2746 1.00893
thorax -7.62283 0.71357 2.1119
lowerneck -2.24737 -2.11691 -6.55627
upperneck 14.8048 -3.81165 7.70031
head 5.05784 -1.91181 3.28104
rclavicle -4.47266e-015 -6.75868e-015
rhumerus -37.2565 0.219551 -91.6055
rradius 90.9665
rwrist 6.91641
rhand -7.24917 60.6701
rfingers 7.12502
rthumb 18.6312 31.5424
lclavicle -4.47266e-015 -6.75868e-015
lhumerus -46.3379 -10.346 89.5667
lradius 82.8537
lwrist -28.1084
lhand -31.0123 18.8017
lfingers 7.12502
lthumb -4.29499 48.7381
rfemur -10.488 -1.01835 15.9879
rtibia 41.9666
rfoot -17.3967 -9.71104
rtoes -16.6129
lfemur -18.8719 -4.74121 -26.0238
ltibia 39.2905
lfoot -25.9906 4.86281
ltoes -12.8076
